PathFileType	4	(X/Y/Z)	RBDS002\RBDS002runT45.trc
DataRate	CameraRate	NumFrames	NumMarkers	Units	OrigDataRate	OrigDataStartFrame	OrigNumFrames
150.000000	150.000000	4	33	mm	150.000000	1125	4500
Frame#	Time	L.ASIS			L.Heel.Bottom			L.Heel.Lateral			L.Heel.Top			L.Iliac.Crest			L.MT1			L.MT5			L.PSIS			L.Shank.Bottom.Lateral			L.Shank.Bottom.Medial			L.Shank.Top.Lateral			L.Shank.Top.Medial			L.Thigh.Bottom.Lateral			L.Thigh.Bottom.Medial			L.Thigh.Top.Lateral			L.Thigh.Top.Medial			R.ASIS			R.ASY			R.Heel.Bottom			R.Heel.Lateral			R.Heel.Top			R.Iliac.Crest			R.MT1			R.MT5			R.PSIS			R.Shank.Bottom.Lateral			R.Shank.Bottom.Medial			R.Shank.Top.Lateral			R.Shank.Top.Medial			R.Thigh.Bottom.Lateral			R.Thigh.Bottom.Medial			R.Thigh.Top.Lateral			R.Thigh.Top.Medial			
		X1	Y1	Z1	X2	Y2	Z2	X3	Y3	Z3	X4	Y4	Z4	X5	Y5	Z5	X6	Y6	Z6	X7	Y7	Z7	X8	Y8	Z8	X9	Y9	Z9	X10	Y10	Z10	X11	Y11	Z11	X12	Y12	Z12	X13	Y13	Z13	X14	Y14	Z14	X15	Y15	Z15	X16	Y16	Z16	X17	Y17	Z17	X18	Y18	Z18	X19	Y19	Z19	X20	Y20	Z20	X21	Y21	Z21	X22	Y22	Z22	X23	Y23	Z23	X24	Y24	Z24	X25	Y25	Z25	X26	Y26	Z26	X27	Y27	Z27	X28	Y28	Z28	X29	Y29	Z29	X30	Y30	Z30	X31	Y31	Z31	X32	Y32	Z32	X33	Y33	Z33	

1126	7.500000000000001	2354.926449436032	1033.352478603668	897.3240186714416	2359.666782573068	135.1264536610137	957.1399414760319	2386.216280301569	143.048618597703	907.1081168366115	2375.922432562555	182.8636958193401	953.8293681953951	2255.330763180443	1129.055270229724	843.1415762855518	2590.778523404897	119.5807222278475	968.1816992533018	2544.173229899994	113.4921264723774	862.1928241127548	2165.526935624741	1082.612852949355	951.7332546734543	2449.00597040096	266.3412039223301	895.1972415309654	2410.567237761522	272.6172440974319	928.7888639843572	2455.235366736026	345.8670594251917	882.3688895938621	2416.77496983133	356.5096763763358	917.8544917591363	2487.88789838459	679.2447590023387	879.8744671628982	2435.13542682971	638.7058297985243	910.7329586533522	2410.687278610981	753.7220890730076	854.0888447919783	2361.699610508963	716.3363432024893	883.8924364404793	2334.974442250409	999.1273332803095	1104.459382469896	1711.810445906961	153.6869029435683	1046.483351646696	1594.850598817518	312.9675930252515	1023.006425199612	1606.24984651987	292.7922013911496	1064.956313625431	1644.526238368979	319.038561825098	1035.231670808556	2308.200364726166	1095.770859084148	1153.218363200716	1692.89483822122	101.8435833873319	991.3668658658606	1651.066653154988	119.8646376628972	1095.313924047175	2166.479693999711	1077.487033374945	1044.196388911618	1720.084395899376	330.1324248071135	1101.790010082625	1698.389413306173	357.8616786039659	1059.853100481451	1765.228498175899	395.4588469388228	1119.397682212199	1744.037960171706	421.5623676143648	1076.977081122024	2022.814506677625	668.6094118335836	1138.655000783047	1986.369835079437	698.3314779905031	1081.064189906924	2069.336597550533	767.6020998849757	1156.745547041048	2036.061634004649	794.8543956063348	1101.140999174675	
1127	7.506666666666667	2355.953239694865	1035.677171932247	897.4128101771023	2391.958262961375	122.2579621428701	961.088168528065	2418.400895952271	131.4922514323763	911.1430006060205	2404.733454383169	171.0654490181882	957.1325658452275	2255.300845810123	1131.836759736135	843.2267510248524	2623.494567575699	124.0897784293853	974.8685807436908	2578.919079604237	113.0785152083286	868.5054051001176	2166.940256381324	1085.981536715596	951.5520360434085	2471.951503483178	259.5349781605271	898.3831240625134	2433.104328542578	263.5062756436739	931.78686399125	2472.837975912565	339.079320069715	884.4398640609732	2433.674648623185	347.4706305855788	919.6956493135349	2486.542284880167	679.0291491340639	880.0968446821701	2432.848633546309	637.7679555095441	908.96826893529	2410.108571697189	754.2955543193816	854.2639312227069	2360.256521580233	716.1686260468633	882.1676734388303	2335.458870311812	1001.479727130277	1104.72427245314	1695.276818391584	167.4464091701132	1049.597993665869	1586.535151520582	332.4925591266519	1024.498727707081	1596.93243262965	312.1146140207994	1066.601074450147	1636.471104286694	335.9801385719788	1036.344504682033	2308.969388235214	1097.951035163896	1152.917347214726	1673.648890245754	115.4184813851095	995.4287166543421	1632.939287000657	136.2709270040691	1098.638638965784	2167.131910357693	1080.307165693048	1043.83340886118	1710.627684954694	343.9853769019991	1102.844404086843	1690.274767236509	371.820555755088	1060.333371416521	1758.029326098279	407.7464319636991	1119.829652360813	1738.091241310129	433.9759285205392	1076.891715809275	2021.125552917231	672.6746488074725	1137.814416362134	1986.171083404556	701.2467924201554	1078.860648136224	2067.452040605587	771.9004243996615	1154.837392959301	2035.556313986023	798.0877882182176	1097.985993601316	
1128	7.513333333333334	2356.669903154263	1037.47143638179	897.9099934193206	2422.314666274983	111.5542882874642	964.8224501869653	2448.912037666235	121.8523824392147	915.1217310391872	2431.864366536366	161.1518394303273	960.130863352197	2255.232564243455	1133.813048595464	843.4898994463186	2653.107893091331	129.6296515453252	982.4721002885912	2611.40848518034	113.7606976692532	875.617724236116	2168.050164414038	1088.69546462619	951.3407686613857	2493.511119894489	253.8107541244679	901.525342624736	2454.259966506924	255.6398487130004	934.5752107628645	2489.412945289299	333.011194275493	886.3285885518261	2449.582624915958	339.2904647064171	921.186918110345	2484.783973371495	677.7100562805078	879.8430009167167	2430.402103153612	636.156945509478	907.452808425602	2409.074110235164	753.6979551978158	853.9672270747531	2358.575275830111	715.3070697347964	880.6877136299804	2335.741152725637	1003.818024631795	1105.359179589334	1679.247858766614	182.65772035163	1052.565838860263	1578.733270132161	352.4128611412299	1025.67735636096	1588.262579055169	332.0811906571215	1067.961096234079	1628.727215451698	353.4647344870101	1037.028331175066	2308.308508613979	1100.146754583842	1152.774262328084	1654.906089307946	130.5244986588637	999.615106290054	1615.781380423897	154.5510116439299	1102.139262047875	2167.399816575736	1082.663330668588	1043.355698787371	1702.072574356469	358.41343615562	1103.524431179792	1683.138934418821	386.5019170827262	1060.575089615078	1752.106660076184	420.1710038602978	1119.936255158857	1733.495998964402	446.6702093569072	1076.596437163177	2020.944768933688	675.166515160205	1136.869030728207	1987.303418683492	702.4618480400068	1076.654412698526	2066.543140461145	774.8180973397932	1152.998094484905	2035.713136333004	799.8597111535107	1095.094217329507	
1129	7.52	2357.130316621933	1038.790935089352	898.8579840146467	2450.154730198648	102.8998442861442	968.2496383182532	2477.196038400398	114.0134891875857	918.9629197503019	2456.820439330593	153.0322291856785	962.7502535223301	2255.206967302483	1134.995087597485	843.9061203255342	2679.231414139856	135.7035362135507	990.8044867150223	2641.155096010971	115.1765462003605	883.3849259283967	2168.848124674748	1090.689353552504	951.1171630630134	2513.344464495286	249.0792156527927	904.562151006926	2473.66463148998	248.9416974159	937.0974548465924	2504.683930406957	327.6517558874987	888.02469392877	2464.202697357701	331.9732391456425	922.3306134739303	2482.740565237464	675.4488278389254	879.1570865424914	2427.904762108989	634.0452131324341	906.2568934892029	2407.701853419423	752.0845396096621	853.2149825004426	2356.774527175146	713.9139097456957	879.5037967116079	2335.861669877972	1006.062803938024	1106.357792781439	1663.945272943414	199.1357324370817	1055.372351792244	1571.776703504926	372.7556721247972	1026.461945389137	1580.533348046069	352.6666007165965	1068.955770777572	1621.653000609143	371.4620658760325	1037.278464890965	2306.385376782884	1102.331177574008	1152.809856131445	1636.837926087872	147.0261912949151	1003.848627780191	1599.725286951134	174.5354123142113	1105.724297671703	2167.348588850235	1084.491250355064	1042.790715421344	1694.604313124454	373.3170687420487	1103.885057158521	1677.163326862022	401.7808396963328	1060.618975554607	1747.550164819646	432.6538844749902	1119.780261336554	1730.33523763111	459.5392175201274	1076.143074925112	2022.250642027316	676.0581703231948	1135.939632484224	1989.731862952167	702.0758643128923	1074.609353395847	2066.70599336035	776.2716210357628	1151.416691825664	2036.633382443002	800.2011445158533	1092.67385512524	
